<svg xmlns="http://www.w3.org/2000/svg" width="20" height="20" fill="none" viewBox="0 0 20 20">
    <path fill="#fff" fill-opacity=".6" d="M17.895 5.262c-.414.2-.587.7-.387 1.113.548 1.131.825 2.35.825 3.625 0 4.595-3.738 8.333-8.333 8.333-4.595 0-8.333-3.738-8.333-8.333 0-4.595 3.738-8.333 8.333-8.333 1.904 0 3.693.621 5.173 1.798.36.286.885.226 1.171-.134.287-.36.227-.885-.134-1.171C14.458.767 12.252 0 10 0 4.486 0 0 4.486 0 10s4.486 10 10 10 10-4.486 10-10c0-1.528-.334-2.992-.992-4.35-.2-.415-.7-.588-1.113-.388z"/>
    <path fill="#fff" fill-opacity=".6" d="M10 3.333c-.46 0-.834.374-.834.834V10c0 .46.374.833.834.833h4.166c.46 0 .834-.373.834-.833 0-.46-.373-.833-.834-.833h-3.333v-5c0-.46-.373-.834-.833-.834z"/>
</svg>
