<svg width="42" height="37" viewBox="0 0 42 37" fill="none" xmlns="http://www.w3.org/2000/svg">
<path d="M2.1231 0H15.0296C16.2013 0 17.1524 0.951004 17.1524 2.12278V15.0293C17.1524 16.2011 16.2013 17.152 15.0296 17.152H8.8523C8.93296 20.5315 9.71839 23.2359 11.2043 25.2695C12.3761 26.8743 14.1507 28.2032 16.524 29.2519C17.6151 29.7316 18.0864 31.0222 17.5769 32.1007L16.0485 35.3273C15.556 36.3631 14.3376 36.8175 13.2847 36.3632C10.4741 35.1489 8.10079 33.612 6.16486 31.744C3.80429 29.4641 2.18678 26.8913 1.3122 24.0213C0.437573 21.1513 0.000322362 17.2369 0.000322362 12.2696V2.12278C0.000322362 0.951046 0.951368 0 2.1231 0Z" fill="white"/>
<path d="M36.8941 36.3547C34.1175 35.1447 31.757 33.6078 29.8083 31.744C27.4266 29.4641 25.8005 26.8998 24.9259 24.0511C24.0513 21.2023 23.6141 17.2752 23.6141 12.2696V2.12278C23.6141 0.951004 24.5651 0 25.7369 0H38.6433C39.8151 0 40.7661 0.951004 40.7661 2.12278V15.0293C40.7661 16.2011 39.8151 17.152 38.6433 17.152H32.4661C32.5467 20.5315 33.3322 23.2359 34.8181 25.2695C35.9899 26.8743 37.7645 28.2032 40.1378 29.2519C41.2289 29.7316 41.7001 31.0223 41.1907 32.1007L39.6665 35.3188C39.174 36.3547 37.947 36.8132 36.8941 36.3547Z" fill="white"/>
</svg>
