<svg data-v-423bf9ae="" xmlns="http://www.w3.org/2000/svg" viewBox="0 0 551 105" class="iconLeft"><!----><!----><!----><g data-v-423bf9ae="" id="9fbf7f09-2dcc-4d79-8562-977a318894be" fill="black" transform="matrix(5.847953629488579,0,0,5.847953629488579,109.2351532448848,1.9259513872433374)"><path d="M4.83 5.50C5.24 5.50 5.58 5.58 5.85 5.73L5.85 3.81C5.48 3.61 5.00 3.47 4.31 3.47C2.73 3.47 1.59 4.62 1.59 6.19L1.59 6.55L0.55 6.55L0.55 8.39L1.59 8.39L1.59 13.52L3.94 13.52L3.94 8.39L5.52 8.39L5.52 6.55L3.94 6.55L3.94 6.29C3.94 5.77 4.40 5.50 4.83 5.50ZM9.54 6.34C7.85 6.34 6.40 7.67 6.40 10.02C6.40 12.55 7.85 13.73 9.41 13.73C10.40 13.73 11.14 13.13 11.48 12.36L11.48 13.52L13.84 13.52L13.84 6.55L11.48 6.55L11.48 7.19C11.03 6.70 10.27 6.34 9.54 6.34ZM10.04 8.64C10.55 8.64 11.07 8.89 11.48 9.21L11.48 9.88C11.48 10.90 10.69 11.35 10.10 11.35C9.35 11.35 8.86 10.77 8.86 10.02C8.86 9.28 9.35 8.64 10.04 8.64ZM18.92 11.09L20.30 13.52L23.41 13.52L20.37 9.54L23.17 6.55L20.33 6.55L18.10 9.35L18.10 3.68L15.75 3.68L15.75 13.52L18.10 13.52L18.10 11.96ZM30.49 9.87C30.49 7.72 29.08 6.34 27.11 6.34C25.01 6.34 23.41 8.07 23.41 10.14C23.41 12.36 25.27 13.73 27.25 13.73C28.29 13.73 29.07 13.52 29.54 13.22L29.54 11.21C29.16 11.43 28.44 11.68 27.38 11.68C26.59 11.68 25.94 11.35 25.73 10.65L30.49 10.65ZM25.76 9.34C25.95 8.63 26.43 8.29 27.04 8.29C27.66 8.29 28.26 8.68 28.26 9.34ZM38.29 8.82C39.06 8.46 39.50 7.88 39.50 6.95C39.50 5.36 37.95 4.36 36.42 4.36L32.06 4.36L32.06 13.32C32.92 13.51 34.82 13.73 36.09 13.73C38.31 13.73 39.94 12.47 39.94 10.94C39.94 9.61 39.14 9.12 38.29 8.82ZM34.62 6.62L35.92 6.62C36.52 6.62 37.01 6.90 37.01 7.40C37.01 7.89 36.52 8.13 35.92 8.13L34.62 8.13ZM35.92 11.47C35.63 11.47 35 11.43 34.62 11.31L34.62 9.84L35.82 9.84C36.56 9.84 37.23 9.99 37.23 10.54C37.23 11.14 36.65 11.47 35.92 11.47ZM48.04 6.55L45.69 6.55L45.68 10.10C45.68 11.06 45.40 11.47 44.71 11.47C44.01 11.47 43.74 11.06 43.74 10.10L43.72 6.55L41.37 6.55L41.37 10.73C41.37 12.62 42.77 13.73 44.71 13.73C46.65 13.73 48.04 12.62 48.04 10.73ZM52.32 6.34C50.67 6.34 49.41 7.25 49.41 8.68C49.41 9.65 49.86 10.32 50.89 10.64L51.58 10.86C52.13 11.03 52.43 11.13 52.43 11.39C52.43 11.72 52.19 11.83 51.67 11.83C51.01 11.83 50.09 11.53 49.44 11.12L49.44 12.95C50.07 13.38 51.00 13.73 52.04 13.73C53.53 13.73 54.89 12.77 54.89 11.40C54.89 10.40 54.30 9.76 53.07 9.45L52.65 9.34C52.06 9.19 51.91 9.11 51.91 8.85C51.91 8.48 52.31 8.31 52.75 8.31C53.43 8.31 54.04 8.64 54.52 8.93L54.52 7.08C54.04 6.63 53.22 6.34 52.32 6.34ZM59.24 6.55L59.24 4.50L57.98 4.50C57.57 5.96 56.60 6.73 55.71 6.96L55.71 8.39L56.89 8.39L56.89 11.21C56.89 12.80 58.01 13.73 59.31 13.73C60.21 13.73 60.85 13.37 61.15 12.97L61.15 11.14C60.81 11.35 60.48 11.44 60.05 11.44C59.54 11.44 59.24 11.02 59.24 10.35L59.24 8.39L61.07 8.39L61.07 6.55ZM69.19 9.87C69.19 7.72 67.79 6.34 65.82 6.34C63.71 6.34 62.11 8.07 62.11 10.14C62.11 12.36 63.97 13.73 65.95 13.73C66.99 13.73 67.77 13.52 68.25 13.22L68.25 11.21C67.87 11.43 67.14 11.68 66.09 11.68C65.30 11.68 64.64 11.35 64.44 10.65L69.19 10.65ZM64.46 9.34C64.65 8.63 65.13 8.29 65.75 8.29C66.36 8.29 66.96 8.68 66.96 9.34ZM74.63 6.41C73.76 6.41 73.28 7.05 72.84 7.79L72.84 6.55L70.49 6.55L70.49 13.52L72.84 13.52L72.84 9.94C73.16 9.32 73.65 8.90 74.29 8.90C74.77 8.90 75.09 9.02 75.43 9.23L75.43 6.62C75.20 6.49 74.94 6.41 74.63 6.41Z"></path></g><!----><g data-v-423bf9ae="" id="619ef743-0345-42a4-9370-88661d046154" transform="matrix(1.0772222730848524,0,0,1.0772222730848524,-6.757903611971656,-0.30499508185473445)" stroke="none" fill="black"><path d="M64.008 72.381c4.002-3.149 12.23-11.582 15.089-21.179-6.511-8.01-33.912-42.187-40.238-50.08-.647 7.491-7.229 23.255-18.649 28.524-5.247 2.56-10.477 4.156-12.467 4.721l39.077 47.32c4.415-1.424 13.138-6.127 17.188-9.306zM90.405 75.352c-6.5 3.781-13.381 7.281-20.674 9.929-8.632 3.134-19.05 6.681-22.386 7.664v5.127l43.046-15.479.014-7.241zM6.891 35.865v14.223l38.812 47.857.033-15.043z"></path><path d="M88.717 70.42c-5.018 3.936-11.386 7.921-18.278 11.363-6.521 3.266-20.879 7.668-23.093 8.339v1.144c3.686-1.09 13.036-3.898 21.237-7.013 9.104-3.457 22.12-11.628 22.12-11.628l-1.986-2.205zM80.877 50.835l-.114.403c-2.851 10.142-11.25 18.858-15.762 22.409-4.225 3.319-13.009 8.054-17.655 9.561v2.168c6.53-2.034 15.656-6.36 20.721-9.922 8.699-6.128 17.195-14.63 22.419-22.404l.047.036C84.648 46.442 51.938 9.001 49.818 6.309c-.719 1.357-1.368 2.265-2.422 2.887C58.228 22.704 75.994 44.843 80.613 50.51l.264.325z"></path><path d="M87.321 59.925s-11.588 12.1-18.328 16.846c-5.696 4.008-14.5 7.942-21.647 10.168v1.498c.692-.212 1.838-.566 3.268-1.021 5.266-1.677 14.41-4.722 19.106-7.072 9.305-4.648 17.623-10.274 22.834-15.386l.161-.16-5.394-4.873z"></path></g><!----></svg>