<svg data-v-423bf9ae="" xmlns="http://www.w3.org/2000/svg" viewBox="0 0 53.11438952531004 60" class="icon"><!----><!----><!----><!----><g data-v-423bf9ae="" id="4a0475a3-db2f-4109-80f9-70d1848b2d8d" transform="matrix(0.6188756799072921,0,0,0.6188756799072921,-4.264672235633874,-0.6943748110849484)" stroke="none" fill="black"><path d="M64.008 72.381c4.002-3.149 12.23-11.582 15.089-21.179-6.511-8.01-33.912-42.187-40.238-50.08-.647 7.491-7.229 23.255-18.649 28.524-5.247 2.56-10.477 4.156-12.467 4.721l39.077 47.32c4.415-1.424 13.138-6.127 17.188-9.306zM90.405 75.352c-6.5 3.781-13.381 7.281-20.674 9.929-8.632 3.134-19.05 6.681-22.386 7.664v5.127l43.046-15.479.014-7.241zM6.891 35.865v14.223l38.812 47.857.033-15.043z"></path><path d="M88.717 70.42c-5.018 3.936-11.386 7.921-18.278 11.363-6.521 3.266-20.879 7.668-23.093 8.339v1.144c3.686-1.09 13.036-3.898 21.237-7.013 9.104-3.457 22.12-11.628 22.12-11.628l-1.986-2.205zM80.877 50.835l-.114.403c-2.851 10.142-11.25 18.858-15.762 22.409-4.225 3.319-13.009 8.054-17.655 9.561v2.168c6.53-2.034 15.656-6.36 20.721-9.922 8.699-6.128 17.195-14.63 22.419-22.404l.047.036C84.648 46.442 51.938 9.001 49.818 6.309c-.719 1.357-1.368 2.265-2.422 2.887C58.228 22.704 75.994 44.843 80.613 50.51l.264.325z"></path><path d="M87.321 59.925s-11.588 12.1-18.328 16.846c-5.696 4.008-14.5 7.942-21.647 10.168v1.498c.692-.212 1.838-.566 3.268-1.021 5.266-1.677 14.41-4.722 19.106-7.072 9.305-4.648 17.623-10.274 22.834-15.386l.161-.16-5.394-4.873z"></path></g><!----></svg>